# xmcd
#
# Track frame offsets: 
#        150
#        19224
#        35969
#        54044
#        67679
#        85699
#        101189
#        117511
#        134257
#        151334
#        168856
#        182678
#        199246
#        215081
#        229284
#        243391
#        260706
#        274722
#        291606
#        308328
#        323341
#
# Disc length: 4564 seconds
#
# Revision: 1
# Processed by: cddbd v1.5.2PL0 Copyright (c) Steve Scherf et al.
# Submitted via: ExactAudioCopyFreeDBPlugin 1.0
#
DISCID=2d11d215
DTITLE=Various Artist - Country Pop and Strassenschlager CD1
DYEAR=2011
DGENRE=Country
TTITLE0=Big Bones - Highways Have Always Been My Home
TTITLE1=Werding, Juliane - Zusammen
TTITLE2=Green, Pat - Wave On Wave (Album Version)
TTITLE3=Texas Lightning - No No Never
TTITLE4=Martin, Andreas - Alle Blonden Mädchen
TTITLE5=Feller, Linda - Er Ist Kein Engel
TTITLE6=Andrews, Chris - Country Boy At Heart (Radio Cut)
TTITLE7=Gitty - California
TTITLE8=Roadtrip - Better Life
TTITLE9=Green, C. B. - On My Way
TTITLE10=Cole, N. Y. - Counting The Miles
TTITLE11=Eisbrenner - Viel Zu Fern
TTITLE12=Chico and The Gypsies - Senorita
TTITLE13=Cagey Strings - Ein Hauch Von Mexico (Bonanza Mix)
TTITLE14=Baginsky, Gaby - So Ein Mann
TTITLE15=Holm, Michael - Roberts, Monty - Shy Boy (Mestengo) (Radio Ed
TTITLE15=it)
TTITLE16=Quinn, Freddy - Take Me Home Country Roads
TTITLE17=Nicki - Du Musst Koa Engel Sei Für Mi
TTITLE18=Valentino, Henry and Cramer, Daffi - Im Wagen Vor Mir
TTITLE19=Jones, William Francis - Is This The Way To Amarillo
TTITLE20=C.C.Tennissen - Mississippi (Du Hörst Mein Lied)
EXTD=
EXTT0=
EXTT1=
EXTT2=
EXTT3=
EXTT4=
EXTT5=
EXTT6=
EXTT7=
EXTT8=
EXTT9=
EXTT10=
EXTT11=
EXTT12=
EXTT13=
EXTT14=
EXTT15=
EXTT16=
EXTT17=
EXTT18=
EXTT19=
EXTT20=
PLAYORDER=
